<?xml version="1.0" encoding="iso-8859-1"?>
<!-- Generator: Adobe Illustrator 19.0.0, SVG Export Plug-In . SVG Version: 6.00 Build 0)  -->
<svg version="1.1" id="Layer_1" xmlns="http://www.w3.org/2000/svg" xmlns:xlink="http://www.w3.org/1999/xlink" x="0px" y="0px"
	 viewBox="0 0 512 512" style="enable-background:new 0 0 512 512;" xml:space="preserve">
<g id="XMLID_410_">
	<g id="XMLID_8539_">
		<circle id="XMLID_8130_" style="fill:#FFB64D;" cx="256" cy="256" r="248.5"/>
		<circle id="XMLID_8279_" style="fill:#FFC988;" cx="256" cy="256" r="228.431"/>
		<circle id="XMLID_8101_" style="fill:#FFEB96;" cx="256" cy="256" r="177.22"/>
		<circle id="XMLID_8251_" style="fill:#FFF4CA;" cx="256" cy="256" r="153.837"/>
		<circle id="XMLID_8297_" style="fill:#FC819C;" cx="382.791" cy="207.719" r="18.419"/>
		<g id="XMLID_8365_">
			<circle id="XMLID_8364_" style="fill:#FC819C;" cx="241" cy="154.664" r="31.551"/>
		</g>
		<g id="XMLID_8424_">
			<circle id="XMLID_8426_" style="fill:#FC819C;" cx="143.151" cy="215.344" r="11.181"/>
		</g>
		<g id="XMLID_8540_">
			<circle id="XMLID_8542_" style="fill:#FC819C;" cx="295.723" cy="393.017" r="11.181"/>
		</g>
		<g id="XMLID_8453_">
			<circle id="XMLID_8455_" style="fill:#FC819C;" cx="116.792" cy="289.51" r="11.181"/>
		</g>
		<g id="XMLID_8392_">
			<path id="XMLID_8296_" style="fill:#63CEC1;" d="M179.478,348.068l-4.164-40.723c-0.568-5.558,3.477-10.524,9.035-11.093l0,0
				c5.558-0.568,10.524,3.477,11.093,9.035l4.164,40.723c0.568,5.558-3.477,10.524-9.035,11.093h0
				C185.012,357.671,180.046,353.626,179.478,348.068z"/>
		</g>
		<g id="XMLID_8469_">
			<path id="XMLID_8471_" style="fill:#63CEC1;" d="M170.269,183.157l-4.164-40.723c-0.568-5.558,3.477-10.524,9.035-11.093h0
				c5.558-0.568,10.524,3.477,11.093,9.035l4.164,40.723c0.568,5.558-3.477,10.524-9.035,11.093l0,0
				C175.803,192.76,170.837,188.715,170.269,183.157z"/>
		</g>
		<g id="XMLID_8394_">
			<path id="XMLID_8396_" style="fill:#63CEC1;" d="M348.272,290.462l40.065-8.399c5.468-1.146,10.83,2.357,11.976,7.825v0
				c1.146,5.468-2.357,10.83-7.825,11.976l-40.065,8.398c-5.468,1.146-10.83-2.357-11.976-7.825l0,0
				C339.301,296.97,342.804,291.609,348.272,290.462z"/>
		</g>
	</g>
	<g id="XMLID_755_">
		<path id="XMLID_1194_" d="M437.12,436.917C485.407,388.577,512,324.332,512,256c0-38.222-8.222-74.993-24.438-109.291
			c-1.771-3.746-6.239-5.347-9.986-3.575c-3.744,1.771-5.345,6.241-3.574,9.986c14.198,30.029,21.874,62.082,22.876,95.38h-56.323
			c-1.818-45.284-20.01-86.419-48.811-117.637l39.934-39.933c10.328,11.027,19.719,23.123,28.012,36.202
			c2.218,3.5,6.854,4.536,10.35,2.318c3.499-2.218,4.536-6.852,2.318-10.35c-10.017-15.8-21.758-30.443-34.917-43.662
			c-0.133-0.157-0.269-0.313-0.417-0.462c-0.197-0.196-0.402-0.377-0.614-0.547c-16.386-16.279-34.93-30.371-55.104-41.716
			C343.249,11.312,299.919,0,256,0C187.668,0,123.424,26.593,75.083,74.88c-0.035,0.033-0.072,0.062-0.107,0.096
			c-0.034,0.034-0.063,0.072-0.097,0.107C26.593,123.423,0,187.668,0,256s26.593,132.577,74.88,180.917
			c0.034,0.035,0.062,0.073,0.097,0.107c0.034,0.034,0.072,0.063,0.107,0.096C123.424,485.407,187.668,512,256,512
			c68.332,0,132.577-26.593,180.917-74.881c0.035-0.033,0.072-0.062,0.106-0.096S437.086,436.952,437.12,436.917z M15.128,263.5
			h56.315c0.908,22.941,5.971,45.168,15.116,66.172c1.653,3.797,6.07,5.534,9.87,3.883c3.798-1.654,5.536-6.073,3.883-9.871
			c-8.317-19.104-12.96-39.317-13.859-60.184h151.44L201.7,299.693c-1.098-2.718-2.862-5.133-5.198-7.035
			c-3.648-2.973-8.237-4.348-12.917-3.866c-9.663,0.988-16.72,9.653-15.732,19.316l2.359,23.073L130.8,370.593
			c-5.767-6.303-11.105-13.079-15.943-20.306c-2.304-3.442-6.963-4.365-10.404-2.061c-3.442,2.304-4.365,6.963-2.061,10.404
			c5.388,8.049,11.341,15.589,17.786,22.584l-39.723,39.722C41.49,379.49,16.997,324.296,15.128,263.5z M80.455,91.063l39.8,39.8
			C91.455,162.081,73.263,203.216,71.445,248.5H15.128C16.997,187.704,41.49,132.51,80.455,91.063z M189.007,316.098
			c0.008,0.108,0.02,0.215,0.033,0.322l3.104,30.353c0.096,0.938-0.319,1.604-0.574,1.918c-0.256,0.314-0.825,0.855-1.763,0.951
			c-0.933,0.1-1.604-0.319-1.918-0.574c-0.313-0.256-0.854-0.824-0.95-1.763l-1.429-13.973c-0.006-0.07-0.014-0.139-0.021-0.209
			l-2.714-26.541c-0.096-0.938,0.319-1.604,0.574-1.919c0.256-0.313,0.824-0.854,1.762-0.95c0.094-0.01,0.186-0.014,0.274-0.014
			c0.794,0,1.361,0.358,1.644,0.588c0.314,0.256,0.854,0.824,0.951,1.763L189.007,316.098z M172.249,350.358
			c0.773,4.065,2.922,7.695,6.168,10.339c3.172,2.585,7.055,3.96,11.092,3.96c0.605,0,1.215-0.031,1.825-0.094
			c4.681-0.479,8.896-2.752,11.867-6.4c2.972-3.648,4.345-8.235,3.866-12.916l-2.756-26.951l44.19-44.19v151.429
			c-40.186-1.765-77.95-17.644-107.092-44.337L172.249,350.358z M241,178.715c-13.262,0-24.051-10.789-24.051-24.051
			s10.789-24.051,24.051-24.051s24.051,10.789,24.051,24.051S254.262,178.715,241,178.715z M241,115.613
			c-21.533,0-39.051,17.519-39.051,39.051s17.518,39.051,39.051,39.051c2.565,0,5.071-0.256,7.5-0.73v44.908l-51.179-51.179
			c0.549-2.023,0.761-4.172,0.535-6.378l-4.164-40.723c-0.988-9.661-9.649-16.719-19.316-15.733
			c-4.681,0.479-8.896,2.752-11.867,6.4c-2.972,3.648-4.345,8.235-3.866,12.916l0.551,5.392l-17.725-17.724
			c28.487-26.094,65.88-42.61,107.03-44.408v29.889C246.071,115.869,243.565,115.613,241,115.613z M173.565,141.671
			c-0.096-0.938,0.319-1.604,0.574-1.918c0.256-0.314,0.825-0.855,1.761-0.951c1.432-0.134,2.723,0.902,2.87,2.337l4.164,40.723
			c0.096,0.938-0.319,1.604-0.574,1.918c-0.256,0.314-0.825,0.855-1.763,0.951c-0.938,0.099-1.604-0.319-1.917-0.574
			c-0.314-0.256-0.854-0.824-0.951-1.762L173.565,141.671z M161.611,172.218l1.197,11.702c0.926,9.058,8.596,15.825,17.511,15.825
			c0.596,0,1.2-0.03,1.806-0.093c1.936-0.198,3.761-0.716,5.444-1.477l50.325,50.325H86.455
			c1.799-41.15,18.314-78.542,44.409-107.03L161.611,172.218z M263.5,274.107l107.029,107.03
			c-28.487,26.094-65.879,42.609-107.029,44.408V274.107z M263.5,186.551c10.002-7.079,16.551-18.729,16.551-31.887
			s-6.549-24.809-16.551-31.887V86.455c41.15,1.799,78.542,18.314,107.029,44.408L263.5,237.893V186.551z M248.5,71.445
			c-45.284,1.818-86.42,20.01-117.637,48.811l-39.8-39.8C132.51,41.49,187.703,16.997,248.5,15.128V71.445z M130.794,391.812
			c31.941,29.469,73.494,46.955,117.706,48.738v56.322c-60.797-1.869-115.99-26.362-157.438-65.328L130.794,391.812z M263.5,440.555
			c45.284-1.818,86.419-20.01,117.637-48.81l39.8,39.8c-41.447,38.966-96.641,63.459-157.437,65.327V440.555z M391.744,381.137
			c28.801-31.218,46.992-72.353,48.811-117.637h56.317c-1.869,60.796-26.362,115.99-65.327,157.437L391.744,381.137z M425.545,248.5
			H358.5c-4.143,0-7.5,3.357-7.5,7.5s3.357,7.5,7.5,7.5h67.045c-1.799,41.15-18.314,78.542-44.408,107.029L274.107,263.5H327
			c4.143,0,7.5-3.357,7.5-7.5s-3.357-7.5-7.5-7.5h-52.893l107.03-107.03C407.231,169.958,423.746,207.35,425.545,248.5z
			 M421.088,80.305l-39.951,39.951c-31.218-28.801-72.353-46.992-117.637-48.81V15.116
			C323.103,16.934,378.732,40.371,421.088,80.305z"/>
		<path id="XMLID_1212_" d="M143.151,234.025c10.301,0,18.681-8.381,18.681-18.682s-8.38-18.682-18.681-18.682
			c-10.301,0-18.682,8.381-18.682,18.682S132.85,234.025,143.151,234.025z M143.151,211.662c2.03,0,3.681,1.651,3.681,3.682
			s-1.651,3.682-3.681,3.682c-2.03,0-3.682-1.651-3.682-3.682S141.121,211.662,143.151,211.662z"/>
		<path id="XMLID_1215_" d="M295.723,374.336c-10.301,0-18.682,8.381-18.682,18.682s8.381,18.681,18.682,18.681
			s18.682-8.38,18.682-18.681S306.023,374.336,295.723,374.336z M295.723,396.698c-2.03,0-3.682-1.651-3.682-3.681
			c0-2.03,1.651-3.682,3.682-3.682s3.682,1.651,3.682,3.682C299.404,395.047,297.753,396.698,295.723,396.698z"/>
		<path id="XMLID_1218_" d="M116.792,308.191c10.301,0,18.681-8.381,18.681-18.682s-8.38-18.682-18.681-18.682
			c-10.301,0-18.682,8.381-18.682,18.682S106.491,308.191,116.792,308.191z M116.792,285.828c2.03,0,3.681,1.651,3.681,3.682
			s-1.651,3.682-3.681,3.682c-2.03,0-3.682-1.651-3.682-3.682S114.762,285.828,116.792,285.828z"/>
		<path id="XMLID_1221_" d="M382.791,233.637c14.292,0,25.919-11.627,25.919-25.918c0-14.292-11.627-25.919-25.919-25.919
			s-25.919,11.627-25.919,25.919C356.872,222.01,368.499,233.637,382.791,233.637z M382.791,196.8
			c6.021,0,10.919,4.898,10.919,10.919s-4.898,10.918-10.919,10.918s-10.919-4.897-10.919-10.918S376.771,196.8,382.791,196.8z"/>
		<path id="XMLID_1224_" d="M335.601,290.728c-2.574,3.939-3.459,8.645-2.494,13.249c0.965,4.605,3.666,8.56,7.605,11.134
			c2.899,1.895,6.215,2.874,9.6,2.874c1.213,0,2.436-0.126,3.65-0.38l40.064-8.398c9.506-1.993,15.619-11.349,13.628-20.856
			c-1.993-9.505-11.343-15.614-20.856-13.627l-40.064,8.398C342.128,284.087,338.174,286.788,335.601,290.728z M348.158,298.932
			c0.221-0.339,0.73-0.936,1.653-1.129l40.063-8.398c1.411-0.302,2.802,0.612,3.098,2.022c0.296,1.412-0.612,2.802-2.024,3.098
			l-40.064,8.398c-0.921,0.193-1.628-0.148-1.967-0.37c-0.339-0.221-0.936-0.73-1.129-1.653
			C347.594,299.977,347.937,299.271,348.158,298.932z"/>
		<path id="XMLID_1225_" d="M319.304,351.497l-1.062-1.062c-2.93-2.928-7.678-2.928-10.607,0c-2.929,2.93-2.929,7.678,0,10.607
			l1.062,1.062c1.465,1.464,3.385,2.196,5.304,2.196s3.839-0.732,5.304-2.196C322.232,359.175,322.232,354.427,319.304,351.497z"/>
		<path id="XMLID_1226_" d="M325.342,224.967l1.062,1.061c1.464,1.463,3.382,2.194,5.301,2.194c1.92,0,3.841-0.733,5.306-2.199
			c2.928-2.931,2.926-7.679-0.005-10.606l-1.062-1.061c-2.93-2.927-7.679-2.927-10.606,0.005
			C322.409,217.291,322.411,222.039,325.342,224.967z"/>
		<path id="XMLID_1227_" d="M283.377,339.03c1.919,0,3.839-0.732,5.304-2.196c2.929-2.93,2.929-7.678,0-10.607l-1.061-1.061
			c-2.93-2.928-7.678-2.928-10.607,0c-2.929,2.93-2.929,7.678,0,10.607l1.061,1.061C279.538,338.298,281.458,339.03,283.377,339.03z
			"/>
		<path id="XMLID_1228_" d="M144.207,295.875c1.464,1.464,3.384,2.196,5.303,2.196s3.839-0.732,5.303-2.196
			c2.929-2.93,2.929-7.678,0-10.607l-1.062-1.062c-2.929-2.928-7.678-2.928-10.606,0c-2.929,2.93-2.929,7.678,0,10.607
			L144.207,295.875z"/>
		<path id="XMLID_1229_" d="M311.926,136.539l-1.061-1.062c-2.928-2.93-7.677-2.933-10.606-0.005
			c-2.931,2.928-2.933,7.676-0.005,10.606l1.061,1.062c1.465,1.466,3.385,2.199,5.306,2.199c1.918,0,3.837-0.731,5.301-2.194
			C314.852,144.218,314.854,139.47,311.926,136.539z"/>
		<path id="XMLID_1230_" d="M215.164,376.753c1.465,1.466,3.385,2.198,5.305,2.198c1.919,0,3.838-0.731,5.302-2.195
			c2.929-2.929,2.931-7.677,0.002-10.606l-1.061-1.062c-2.929-2.931-7.678-2.932-10.607-0.003s-2.931,7.677-0.002,10.606
			L215.164,376.753z"/>
	</g>
</g>
<g>
</g>
<g>
</g>
<g>
</g>
<g>
</g>
<g>
</g>
<g>
</g>
<g>
</g>
<g>
</g>
<g>
</g>
<g>
</g>
<g>
</g>
<g>
</g>
<g>
</g>
<g>
</g>
<g>
</g>
</svg>
